<?xml version="1.0" encoding="UTF-8" standalone="no"?>
<!-- Created with Inkscape (http://www.inkscape.org/) -->

<svg
   version="1.1"
   id="svg1"
   width="559.45245"
   height="88.169983"
   viewBox="0 0 559.45245 88.169982"
   sodipodi:docname="eq.svg"
   inkscape:version="1.3 (0e150ed6c4, 2023-07-21)"
   xmlns:inkscape="http://www.inkscape.org/namespaces/inkscape"
   xmlns:sodipodi="http://sodipodi.sourceforge.net/DTD/sodipodi-0.dtd"
   xmlns="http://www.w3.org/2000/svg"
   xmlns:svg="http://www.w3.org/2000/svg">
  <defs
     id="defs1" />
     id="namedview1"
     pagecolor="#ffffff"
     bordercolor="#000000"
     borderopacity="0.25"
     inkscape:showpageshadow="2"
     inkscape:pageopacity="0.0"
     inkscape:pagecheckerboard="0"
     inkscape:deskcolor="#d1d1d1"
     showgrid="false"
     inkscape:zoom="2.2409046"
     inkscape:cx="352.5362"
     inkscape:cy="141.23761"
     inkscape:window-width="1920"
     inkscape:window-height="992"
     inkscape:window-x="1342"
     inkscape:window-y="-8"
     inkscape:window-maximized="1"
     inkscape:current-layer="g2">
    <inkscape:page
       x="0"
       y="0"
       inkscape:label="1"
       id="page1"
       width="559.45245"
       height="88.169983"
       margin="0"
       bleed="0" />
  </sodipodi:namedview>
  <g
     id="g1"
     inkscape:groupmode="layer"
     inkscape:label="1"
     transform="translate(-72.661676,-1.3281258)">
    <g
       id="g2"
       aria-label="y(r)=&#10;Z&#10;h(r,r&#10;′&#10;)I(r&#10;′&#10;)ρ(r&#10;′&#10;)dr&#10;′"
       transform="matrix(1.3333333,0,0,1.3333333,313.69067,19.408)">
      <path
         id="path2"
         d="m -167.18919,15.6006 c 0.14002,-0.420079 0.14002,-0.455086 0.14002,-0.665125 0,-0.560106 -0.42007,-0.805152 -0.87515,-0.805152 -0.31507,0 -0.77016,0.175033 -1.05021,0.595112 -0.0699,0.175034 -0.28005,1.085205 -0.42007,1.610304 -0.21004,0.770146 -0.42008,1.575297 -0.59512,2.38045 l -1.33024,5.356011 c -0.10506,0.455085 -1.40027,2.555482 -3.36065,2.555482 -1.50528,0 -1.85534,-1.33025 -1.85534,-2.415456 0,-1.365257 0.5251,-3.220608 1.54029,-5.846104 0.45508,-1.225231 0.5951,-1.54029 0.5951,-2.135403 0,-1.330251 -0.98017,-2.450463 -2.45046,-2.450463 -2.83552,0 -3.92073,4.34082 -3.92073,4.585866 0,0.315059 0.28005,0.315059 0.35006,0.315059 0.28006,0 0.31507,-0.07001 0.45509,-0.560105 0.80515,-2.800529 1.99538,-3.675694 3.01057,-3.675694 0.24505,0 0.77014,0 0.77014,0.945179 0,0.735139 -0.31505,1.54029 -0.52509,2.100397 -1.19023,3.150595 -1.71533,4.830912 -1.71533,6.231176 0,2.660502 1.85536,3.535668 3.64069,3.535668 1.15522,0 2.17041,-0.490093 2.97555,-1.330252 -0.38506,1.540292 -0.73513,3.010569 -1.92536,4.585866 -0.77014,1.015193 -1.89036,1.890357 -3.25561,1.890357 -0.42008,0 -1.78534,-0.105012 -2.27543,-1.260237 0.49009,0 0.87517,0 1.29525,-0.350067 0.28005,-0.280053 0.59511,-0.665125 0.59511,-1.225231 0,-0.945179 -0.80515,-1.050198 -1.12022,-1.050198 -0.66512,0 -1.6453,0.490092 -1.6453,1.925363 0,1.505284 1.29524,2.59049 3.15059,2.59049 3.04558,0 6.12615,-2.695509 6.96632,-6.056144 z m 0,0"
         style="fill:#c00000;fill-opacity:1;fill-rule:nonzero;stroke:none;stroke-width:2.98722" />
      <path
         id="path3"
         d="m -156.15335,34.084091 c 0,-0.105013 0,-0.140027 -0.49009,-0.665126 -3.71071,-3.745707 -4.69089,-9.346765 -4.69089,-13.932631 0,-5.145972 1.15522,-10.3269503 4.7959,-14.0726574 0.38508,-0.3500662 0.38508,-0.3850729 0.38508,-0.4900925 0,-0.2100378 -0.10506,-0.3150597 -0.28006,-0.3150597 -0.31506,0 -2.97556,2.0303833 -4.7259,5.8110976 -1.54028,3.290621 -1.89034,6.581243 -1.89034,9.066712 0,2.345442 0.35006,5.951123 1.96036,9.311758 1.78534,3.640688 4.34082,5.601058 4.65588,5.601058 0.17503,0 0.28006,-0.105013 0.28006,-0.315059 z m 0,0"
         style="fill:#000000;fill-opacity:1;fill-rule:nonzero;stroke:none;stroke-width:2.98722" />
      <path
         id="path4"
         d="m -141.22304,14.970481 c -1.6103,0.350066 -1.78533,1.785338 -1.78533,2.100397 0,0.630118 0.49009,1.365258 1.47028,1.365258 1.01519,0 2.1354,-0.840159 2.1354,-2.345443 0,-1.365258 -1.0502,-2.59049 -2.90556,-2.59049 -1.6803,0 -3.08057,0.840159 -3.95574,1.785338 -0.70013,-1.365258 -2.41545,-1.785338 -3.50066,-1.785338 -1.0852,0 -1.92537,0.63012 -2.55548,1.680318 -0.73515,1.155218 -1.15522,2.765523 -1.15522,2.940555 0,0.42008 0.45509,0.42008 0.73514,0.42008 0.31506,0 0.42008,0 0.59511,-0.140027 0.035,-0.07001 0.035,-0.105013 0.21004,-0.875165 0.5951,-2.240423 1.22522,-2.975562 2.03037,-2.975562 0.45509,0 0.70015,0.315059 0.70015,1.085205 0,0.525099 -0.10506,0.875165 -0.42009,2.275429 -0.14,0.490093 -0.63012,2.450463 -0.84016,3.185602 -0.10505,0.595113 -0.45509,1.925363 -0.59511,2.450464 -0.175,0.770145 -0.52511,2.100395 -0.52511,2.310435 0,0.630118 0.45509,1.330251 1.40027,1.330251 0.59512,0 1.61031,-0.350066 1.96038,-1.575297 0.035,-0.105026 2.03038,-8.191547 2.06538,-8.366579 0.14001,-0.455087 0.14001,-0.5251 0.5251,-0.94518 0.66513,-0.875165 1.78534,-1.75033 3.25562,-1.75033 0.77014,0 1.08521,0.350066 1.15522,0.420079 z m 0,0"
         style="fill:#000000;fill-opacity:1;fill-rule:nonzero;stroke:none;stroke-width:2.98722" />
      <path
         id="path5"
         d="m -129.1195,19.486334 c 0,-2.310436 -0.35006,-5.916117 -1.96037,-9.276752 -1.78533,-3.6406874 -4.37582,-5.6010576 -4.65589,-5.6010576 -0.17502,0 -0.31505,0.1400275 -0.31505,0.3150597 0,0.1050188 0,0.1400274 0.59512,0.700132 2.90554,2.9405556 4.58586,7.6664479 4.58586,13.8626179 0,5.110965 -1.08521,10.32695 -4.7609,14.107664 -0.42008,0.350066 -0.42008,0.385074 -0.42008,0.490093 0,0.175033 0.14,0.315059 0.31505,0.315059 0.28007,0 2.97557,-2.030383 4.7259,-5.811098 1.50529,-3.29062 1.89036,-6.581242 1.89036,-9.101718 z m 31.680979,-2.27543 c 0.45509,0 1.015193,0 1.015193,-0.595112 0,-0.595112 -0.560103,-0.595112 -0.98018,-0.595112 h -17.818362 c -0.42008,0 -0.98018,0 -0.98018,0.595112 0,0.595112 0.5601,0.595112 1.01518,0.595112 z m 0.03497,5.776091 c 0.420077,0 0.980193,0 0.980193,-0.595112 0,-0.595113 -0.560116,-0.595113 -1.015193,-0.595113 H -115.1869 c -0.45509,0 -1.01519,0 -1.01519,0.595113 0,0.595112 0.5601,0.595112 0.98018,0.595112 z m 0,0"
         style="fill:#000000;fill-opacity:1;fill-rule:nonzero;stroke:none;stroke-width:2.98722" />
      <path
         id="path6"
         d="m -83.400861,51.202323 c 0.98018,-0.035 1.47027,-0.700133 1.47027,-1.43527 0,-0.980185 -0.735141,-1.470278 -1.43527,-1.470278 -0.700128,0 -1.435269,0.455086 -1.435269,1.505284 0,1.505286 1.470282,2.765523 3.290616,2.765523 4.515861,0 6.231183,-6.966317 8.33158,-15.612949 2.275428,-9.381772 4.235798,-18.868563 5.846102,-28.4253682 1.085206,-6.3361965 2.170409,-12.2873198 3.185602,-16.1380478 0.385072,-1.4702761 1.365257,-5.285998 2.555483,-5.285998 0.910171,0 1.64531,0.560105 1.785337,0.665126 -0.980185,0.07002 -1.505284,0.735138 -1.505284,1.470278 0,0.9801855 0.73514,1.4702754 1.435272,1.4702754 0.700132,0 1.470276,-0.4550835 1.470276,-1.5052814 0,-1.610303 -1.610303,-2.765523 -3.255615,-2.765523 -2.275428,0 -3.92074,3.255616 -5.566051,9.3117569 -0.105026,0.3150603 -4.130778,15.2628831 -7.421401,34.7265591 -0.770144,4.550859 -1.610298,9.521798 -2.590491,13.652578 -0.560103,2.170411 -1.92536,7.771468 -4.340823,7.771468 -1.050192,0 -1.785334,-0.700133 -1.820334,-0.700133 z m 0,0"
         style="fill:#000000;fill-opacity:1;fill-rule:nonzero;stroke:none;stroke-width:2.98722" />
      <path
         id="path7"
         d="m -43.213276,6.6039014 c 0,0 0,-0.3150596 -0.385073,-0.3150596 -0.700134,0 -2.870543,0.2450455 -3.640689,0.3150596 -0.245042,0 -0.560105,0.035006 -0.560105,0.5951121 0,0.3500662 0.280052,0.3500662 0.700132,0.3500662 1.435271,0 1.505286,0.2100377 1.505286,0.4900925 l -0.105025,0.5951124 -4.305814,17.1532394 c -0.105026,0.420079 -0.105026,0.455086 -0.105026,0.665125 0,0.665126 0.595112,0.805153 0.840158,0.805153 0.49009,0 0.980186,-0.350067 1.120211,-0.770145 l 0.560106,-2.240424 0.665146,-2.695509 c 0.175031,-0.665125 0.350067,-1.295244 0.490094,-1.995377 0.07003,-0.175033 0.315058,-1.155218 0.350064,-1.33025 0.07003,-0.280053 0.980186,-1.925365 1.995377,-2.730516 0.665126,-0.490093 1.575299,-1.050199 2.870541,-1.050199 1.260239,0 1.610306,1.015192 1.610306,2.06539 0,1.610304 -1.120211,4.86592 -1.855352,6.686263 -0.245041,0.665126 -0.385071,1.050198 -0.385071,1.645311 0,1.400264 1.050198,2.415456 2.450461,2.415456 2.800529,0 3.885738,-4.34082 3.885738,-4.585866 0,-0.280053 -0.280055,-0.280053 -0.350071,-0.280053 -0.315057,0 -0.315057,0.07001 -0.455086,0.525099 -0.455082,1.575297 -1.400263,3.7107 -3.045573,3.7107 -0.490092,0 -0.700132,-0.315059 -0.700132,-0.980185 0,-0.770145 0.280052,-1.470277 0.525099,-2.135403 0.490092,-1.260238 1.820343,-4.795905 1.820343,-6.546236 0,-1.925364 -1.190222,-3.185602 -3.430647,-3.185602 -1.855352,0 -3.290623,0.945179 -4.375826,2.310437 z m 0,0"
         style="fill:#7030a0;fill-opacity:1;fill-rule:nonzero;stroke:none;stroke-width:2.98722" />
      <path
         id="path8"
         d="m -24.773545,34.084091 c 0,-0.105013 0,-0.140027 -0.49009,-0.665126 -3.710704,-3.745707 -4.690888,-9.346765 -4.690888,-13.932631 0,-5.145972 1.155217,-10.3269503 4.795908,-14.0726574 0.38507,-0.3500662 0.38507,-0.3850729 0.38507,-0.4900925 0,-0.2100378 -0.105026,-0.3150597 -0.280052,-0.3150597 -0.315061,0 -2.975563,2.0303833 -4.725891,5.8110976 -1.540292,3.290621 -1.890359,6.581243 -1.890359,9.066712 0,2.345442 0.350067,5.951123 1.960369,9.311758 1.78534,3.640688 4.34082,5.601058 4.655881,5.601058 0.175032,0 0.280052,-0.105013 0.280052,-0.315059 z m 0,0"
         style="fill:#000000;fill-opacity:1;fill-rule:nonzero;stroke:none;stroke-width:2.98722" />
      <path
         id="path9"
         d="m -9.8344727,14.970481 c -1.6103063,0.350066 -1.7853393,1.785338 -1.7853393,2.100397 0,0.630118 0.490095,1.365258 1.47028,1.365258 1.0151916,0 2.1354024,-0.840159 2.1354024,-2.345443 0,-1.365258 -1.0501979,-2.59049 -2.9055504,-2.59049 -1.680317,0 -3.080581,0.840159 -3.955745,1.785338 -0.700131,-1.365258 -2.415455,-1.785338 -3.500659,-1.785338 -1.08521,0 -1.925368,0.63012 -2.555485,1.680318 -0.73514,1.155218 -1.155219,2.765523 -1.155219,2.940555 0,0.42008 0.455088,0.42008 0.735141,0.42008 0.315059,0 0.420078,0 0.595112,-0.140027 0.035,-0.07001 0.035,-0.105013 0.210033,-0.875165 0.595113,-2.240423 1.22523,-2.975562 2.030383,-2.975562 0.455085,0 0.700134,0.315059 0.700134,1.085205 0,0.525099 -0.105026,0.875165 -0.420079,2.275429 -0.140007,0.490093 -0.630122,2.450463 -0.84016,3.185602 -0.105026,0.595113 -0.455086,1.925363 -0.595112,2.450464 -0.175031,0.770145 -0.525099,2.100395 -0.525099,2.310435 0,0.630118 0.455085,1.330251 1.400263,1.330251 0.595112,0 1.610304,-0.350066 1.960372,-1.575297 0.035,-0.105026 2.030381,-8.191547 2.065389,-8.366579 0.140007,-0.455087 0.140007,-0.5251 0.525099,-0.94518 0.665125,-0.875165 1.785335,-1.75033 3.255616,-1.75033 0.770142,0 1.0852039,0.350066 1.1552194,0.420079 z m 0,0"
         style="fill:#000000;fill-opacity:1;fill-rule:nonzero;stroke:none;stroke-width:2.98722" />
      <path
         id="path10"
         d="m -0.29517236,26.907735 c 0,-1.96037 -0.77014264,-3.115589 -1.92536234,-3.115589 -0.9801851,0 -1.5752995,0.735139 -1.5752995,1.575299 0,0.805151 0.5951144,1.575296 1.5752995,1.575296 0.3500655,0 0.7351388,-0.105012 1.0501966,-0.385071 0.070026,-0.07001 0.1050258,-0.105026 0.1400061,-0.105026 0.0349999,0 0.0700259,0.035 0.0700259,0.455086 0,2.205418 -1.0502005,3.990754 -2.0303869,4.970939 -0.3150565,0.315059 -0.3150565,0.385072 -0.3150565,0.490093 0,0.210037 0.1400074,0.315059 0.2800527,0.315059 0.3500655,0 2.73051403,-2.275429 2.73051403,-5.776091 z m 0,0"
         style="fill:#000000;fill-opacity:1;fill-rule:nonzero;stroke:none;stroke-width:2.98722" />
      <path
         id="path11"
         d="m 20.069927,14.970481 c -1.610306,0.350066 -1.785338,1.785338 -1.785338,2.100397 0,0.630118 0.490091,1.365258 1.470276,1.365258 1.015191,0 2.135405,-0.840159 2.135405,-2.345443 0,-1.365258 -1.050201,-2.59049 -2.905548,-2.59049 -1.680319,0 -3.080585,0.840159 -3.955749,1.785338 -0.700132,-1.365258 -2.415456,-1.785338 -3.500661,-1.785338 -1.085204,0 -1.9253619,0.63012 -2.5554828,1.680318 -0.7351414,1.155218 -1.1552184,2.765523 -1.1552184,2.940555 0,0.42008 0.4550861,0.42008 0.7351387,0.42008 0.3150605,0 0.4200797,0 0.5951131,-0.140027 0.035,-0.07001 0.035,-0.105013 0.2100334,-0.875165 0.5951144,-2.240423 1.225234,-2.975562 2.030386,-2.975562 0.455087,0 0.700133,0.315059 0.700133,1.085205 0,0.525099 -0.105026,0.875165 -0.420081,2.275429 -0.140006,0.490093 -0.630119,2.450463 -0.840157,3.185602 -0.105025,0.595113 -0.455088,1.925363 -0.595114,2.450464 -0.175032,0.770145 -0.5250989,2.100395 -0.5250989,2.310435 0,0.630118 0.4550859,1.330251 1.4002659,1.330251 0.595111,0 1.610301,-0.350066 1.960368,-1.575297 0.035,-0.105026 2.030384,-8.191547 2.06539,-8.366579 0.140008,-0.455087 0.140008,-0.5251 0.525099,-0.94518 0.665126,-0.875165 1.78534,-1.75033 3.255616,-1.75033 0.770146,0 1.085204,0.350066 1.155218,0.420079 z m 0,0"
         style="fill:#000000;fill-opacity:1;fill-rule:nonzero;stroke:none;stroke-width:2.98722" />
      <path
         id="path12"
         d="m 29.617978,4.8273156 c 0.140008,-0.3500659 0.175031,-0.5250992 0.175031,-0.6651256 0,-0.630119 -0.595113,-1.155218 -1.225234,-1.155218 -0.805152,0 -1.050198,0.6651253 -1.155217,0.980185 l -2.730515,9.031706 c -0.035,0.03501 -0.105026,0.315059 -0.105026,0.350066 0,0.245045 0.630115,0.455086 0.805149,0.455086 0.140007,0 0.175032,-0.07001 0.315062,-0.385073 z m 0,0"
         style="fill:#000000;fill-opacity:1;fill-rule:nonzero;stroke:none;stroke-width:2.98722" />
      <path
         id="path13"
         d="m 40.522538,19.486334 c 0,-2.310436 -0.350068,-5.916117 -1.960369,-9.276752 C 36.77683,6.5688946 34.18634,4.6085244 33.906288,4.6085244 c -0.175031,0 -0.315061,0.1400275 -0.315061,0.3150597 0,0.1050188 0,0.1400274 0.595113,0.700132 2.905548,2.9405556 4.585867,7.6664479 4.585867,13.8626179 0,5.110965 -1.085205,10.32695 -4.7609,14.107664 -0.42008,0.350066 -0.42008,0.385074 -0.42008,0.490093 0,0.175033 0.140006,0.315059 0.315061,0.315059 0.280052,0 2.975563,-2.030383 4.725892,-5.811098 1.505284,-3.29062 1.890358,-6.581242 1.890358,-9.101718 z m 0,0"
         style="fill:#000000;fill-opacity:1;fill-rule:nonzero;stroke:none;stroke-width:2.98722" />
      <path
         id="path14"
         d="m 64.537072,8.9143377 c 0.280052,-1.0852052 0.350067,-1.365258 2.69551,-1.365258 0.735139,0 0.945177,0 0.945177,-0.5601058 0,-0.3850725 -0.315059,-0.3850725 -0.420078,-0.3850725 -0.875167,0 -3.080582,0.1050193 -3.920742,0.1050193 -0.910171,0 -3.080581,-0.1050193 -3.990752,-0.1050193 -0.175009,0 -0.595112,0 -0.595112,0.5951121 0,0.3500662 0.280053,0.3500662 0.840158,0.3500662 1.260238,0 2.06539,0 2.06539,0.5601057 0,0.1400274 0,0.2100378 -0.07003,0.4900925 l -4.02575,16.0330281 c -0.245042,1.085204 -0.350063,1.400265 -2.695505,1.400265 -0.665129,0 -0.945182,0 -0.945182,0.595111 0,0.315059 0.350068,0.315059 0.455087,0.315059 0.840158,0 3.010571,-0.105012 3.885733,-0.105012 0.910173,0 3.080581,0.105012 3.990754,0.105012 0.245044,0 0.595114,0 0.595114,-0.560105 0,-0.350065 -0.245042,-0.350065 -0.910173,-0.350065 -0.525099,0 -0.665126,0 -1.260238,-0.07001 -0.630118,-0.07001 -0.735139,-0.175034 -0.735139,-0.525099 0,-0.21004 0.035,-0.455086 0.105028,-0.665126 z m 0,0"
         style="fill:#4472c4;fill-opacity:1;fill-rule:nonzero;stroke:none;stroke-width:2.98722" />
      <path
         id="path15"
         d="m 78.662241,34.084091 c 0,-0.105013 0,-0.140027 -0.490095,-0.665126 -3.710698,-3.745707 -4.690883,-9.346765 -4.690883,-13.932631 0,-5.145972 1.155215,-10.3269503 4.795903,-14.0726574 0.385075,-0.3500662 0.385075,-0.3850729 0.385075,-0.4900925 0,-0.2100378 -0.105026,-0.3150597 -0.280053,-0.3150597 -0.315061,0 -2.975563,2.0303833 -4.725895,5.8110976 -1.540292,3.290621 -1.890355,6.581243 -1.890355,9.066712 0,2.345442 0.350063,5.951123 1.960369,9.311758 1.785338,3.640688 4.34082,5.601058 4.655881,5.601058 0.175031,0 0.280053,-0.105013 0.280053,-0.315059 z m 0,0"
         style="fill:#000000;fill-opacity:1;fill-rule:nonzero;stroke:none;stroke-width:2.98722" />
      <path
         id="path16"
         d="m 93.59256,14.970481 c -1.610305,0.350066 -1.785339,1.785338 -1.785339,2.100397 0,0.630118 0.490093,1.365258 1.470279,1.365258 1.015194,0 2.135404,-0.840159 2.135404,-2.345443 0,-1.365258 -1.0502,-2.59049 -2.90555,-2.59049 -1.680318,0 -3.080584,0.840159 -3.955746,1.785338 -0.700132,-1.365258 -2.415457,-1.785338 -3.500662,-1.785338 -1.085205,0 -1.925363,0.63012 -2.555481,1.680318 -0.735139,1.155218 -1.15522,2.765523 -1.15522,2.940555 0,0.42008 0.455086,0.42008 0.735139,0.42008 0.315061,0 0.420081,0 0.595114,-0.140027 0.035,-0.07001 0.035,-0.105013 0.210033,-0.875165 0.595115,-2.240423 1.225232,-2.975562 2.030386,-2.975562 0.455085,0 0.700132,0.315059 0.700132,1.085205 0,0.525099 -0.105026,0.875165 -0.42008,2.275429 -0.140007,0.490093 -0.630119,2.450463 -0.840158,3.185602 -0.105025,0.595113 -0.455086,1.925363 -0.595113,2.450464 -0.17501,0.770145 -0.525099,2.100395 -0.525099,2.310435 0,0.630118 0.455084,1.330251 1.400265,1.330251 0.595109,0 1.610303,-0.350066 1.960372,-1.575297 0.035,-0.105026 2.03038,-8.191547 2.065386,-8.366579 0.140008,-0.455087 0.140008,-0.5251 0.525099,-0.94518 0.665125,-0.875165 1.785338,-1.75033 3.255616,-1.75033 0.770145,0 1.085204,0.350066 1.15522,0.420079 z m 0,0"
         style="fill:#000000;fill-opacity:1;fill-rule:nonzero;stroke:none;stroke-width:2.98722" />
      <path
         id="path17"
         d="m 103.14061,4.8273156 c 0.14001,-0.3500659 0.17503,-0.5250992 0.17503,-0.6651256 0,-0.630119 -0.5951,-1.155218 -1.22523,-1.155218 -0.80515,0 -1.05019,0.6651253 -1.15521,0.980185 l -2.730518,9.031706 c -0.035,0.03501 -0.105026,0.315059 -0.105026,0.350066 0,0.245045 0.630118,0.455086 0.805152,0.455086 0.140007,0 0.175032,-0.07001 0.315061,-0.385073 z m 0,0"
         style="fill:#000000;fill-opacity:1;fill-rule:nonzero;stroke:none;stroke-width:2.98722" />
      <path
         id="path18"
         d="m 114.04517,19.486334 c 0,-2.310436 -0.35006,-5.916117 -1.96037,-9.276752 -1.78534,-3.6406874 -4.37582,-5.6010576 -4.65588,-5.6010576 -0.17501,0 -0.31506,0.1400275 -0.31506,0.3150597 0,0.1050188 0,0.1400274 0.59512,0.700132 2.90554,2.9405556 4.58586,7.6664479 4.58586,13.8626179 0,5.110965 -1.0852,10.32695 -4.7609,14.107664 -0.42008,0.350066 -0.42008,0.385074 -0.42008,0.490093 0,0.175033 0.14001,0.315059 0.31506,0.315059 0.28006,0 2.97556,-2.030383 4.7259,-5.811098 1.50528,-3.29062 1.89035,-6.581242 1.89035,-9.101718 z m 0,0"
         style="fill:#000000;fill-opacity:1;fill-rule:nonzero;stroke:none;stroke-width:2.98722" />
      <path
         id="path19"
         d="m 127.90778,32.088714 c -0.0699,0.350066 -0.0699,0.42008 -0.0699,0.490093 0,0.42008 0.31506,0.805151 0.80518,0.805151 0.63009,0 0.98017,-0.560105 1.05019,-0.630118 0.1401,-0.280054 1.12021,-4.270807 1.89035,-7.491415 0.59511,1.190224 1.57528,1.995377 2.97555,1.995377 3.46566,0 7.31638,-4.200793 7.31638,-8.611627 0,-3.150594 -1.96037,-4.865919 -4.13077,-4.865919 -2.90556,0 -6.02112,2.975563 -6.9313,6.616251 z m 6.61627,-5.461032 c -2.10041,0 -2.55548,-2.380449 -2.55548,-2.660502 0,-0.105013 0.14009,-0.700131 0.21001,-1.085204 0.84016,-3.360635 1.15522,-4.410833 1.78535,-5.601058 1.29523,-2.17041 2.80053,-2.835536 3.71068,-2.835536 1.0852,0 2.0654,0.875165 2.0654,2.905549 0,1.645311 -0.87517,4.970939 -1.68032,6.441215 -0.9802,1.855351 -2.41545,2.835536 -3.53566,2.835536 z m 0,0"
         style="fill:#00b050;fill-opacity:1;fill-rule:nonzero;stroke:none;stroke-width:2.98722" />
      <path
         id="path20"
         d="m 152.14987,34.084091 c 0,-0.105013 0,-0.140027 -0.49011,-0.665126 -3.71067,-3.745707 -4.69087,-9.346765 -4.69087,-13.932631 0,-5.145972 1.15521,-10.3269503 4.79592,-14.0726574 0.38506,-0.3500662 0.38506,-0.3850729 0.38506,-0.4900925 0,-0.2100378 -0.10521,-0.3150597 -0.2799,-0.3150597 -0.31506,0 -2.97558,2.0303833 -4.72591,5.8110976 -1.54028,3.290621 -1.89035,6.581243 -1.89035,9.066712 0,2.345442 0.35007,5.951123 1.96037,9.311758 1.78534,3.640688 4.34083,5.601058 4.65589,5.601058 0.17512,0 0.2799,-0.105013 0.2799,-0.315059 z m 0,0"
         style="fill:#000000;fill-opacity:1;fill-rule:nonzero;stroke:none;stroke-width:2.98722" />
      <path
         id="path21"
         d="m 167.08018,14.970481 c -1.61029,0.350066 -1.78532,1.785338 -1.78532,2.100397 0,0.630118 0.49009,1.365258 1.47025,1.365258 1.01521,0 2.13543,-0.840159 2.13543,-2.345443 0,-1.365258 -1.05019,-2.59049 -2.90555,-2.59049 -1.68034,0 -3.08059,0.840159 -3.95577,1.785338 -0.7001,-1.365258 -2.41544,-1.785338 -3.50063,-1.785338 -1.08522,0 -1.92537,0.63012 -2.55549,1.680318 -0.73513,1.155218 -1.15522,2.765523 -1.15522,2.940555 0,0.42008 0.45507,0.42008 0.73513,0.42008 0.31506,0 0.42009,0 0.5951,-0.140027 0.0351,-0.07001 0.0351,-0.105013 0.20996,-0.875165 0.5951,-2.240423 1.22522,-2.975562 2.03038,-2.975562 0.45509,0 0.70012,0.315059 0.70012,1.085205 0,0.525099 -0.10521,0.875165 -0.42009,2.275429 -0.14005,0.490093 -0.6301,2.450463 -0.84015,3.185602 -0.10521,0.595113 -0.45507,1.925363 -0.59512,2.450464 -0.17512,0.770145 -0.5251,2.100395 -0.5251,2.310435 0,0.630118 0.45512,1.330251 1.40028,1.330251 0.59512,0 1.61033,-0.350066 1.96037,-1.575297 0.0348,-0.105026 2.03037,-8.191547 2.0654,-8.366579 0.14005,-0.455087 0.14005,-0.5251 0.52509,-0.94518 0.66513,-0.875165 1.78534,-1.75033 3.2556,-1.75033 0.77017,0 1.08523,0.350066 1.15524,0.420079 z m 0,0"
         style="fill:#000000;fill-opacity:1;fill-rule:nonzero;stroke:none;stroke-width:2.98722" />
      <path
         id="path22"
         d="m 176.62823,4.8273156 c 0.14005,-0.3500659 0.17512,-0.5250992 0.17512,-0.6651256 0,-0.630119 -0.59512,-1.155218 -1.22524,-1.155218 -0.80514,0 -1.05019,0.6651253 -1.15522,0.980185 l -2.7305,9.031706 c -0.0351,0.03501 -0.10521,0.315059 -0.10521,0.350066 0,0.245045 0.63012,0.455086 0.80515,0.455086 0.14006,0 0.17513,-0.07001 0.31507,-0.385073 z m 0,0"
         style="fill:#000000;fill-opacity:1;fill-rule:nonzero;stroke:none;stroke-width:2.98722" />
      <path
         id="path23"
         d="m 187.53279,19.486334 c 0,-2.310436 -0.35007,-5.916117 -1.96038,-9.276752 -1.78531,-3.6406874 -4.37581,-5.6010576 -4.65586,-5.6010576 -0.17513,0 -0.31507,0.1400275 -0.31507,0.3150597 0,0.1050188 0,0.1400274 0.59512,0.700132 2.90554,2.9405556 4.58585,7.6664479 4.58585,13.8626179 0,5.110965 -1.08519,10.32695 -4.7609,14.107664 -0.42007,0.350066 -0.42007,0.385074 -0.42007,0.490093 0,0.175033 0.14006,0.315059 0.31507,0.315059 0.27992,0 2.97555,-2.030383 4.72589,-5.811098 1.50531,-3.29062 1.89035,-6.581242 1.89035,-9.101718 z m 0,0"
         style="fill:#000000;fill-opacity:1;fill-rule:nonzero;stroke:none;stroke-width:2.98722" />
      <path
         id="path24"
         d="m 215.78313,6.6039014 c 0,0 0,-0.3150596 -0.38506,-0.3150596 -0.45509,0 -3.29065,0.2800528 -3.78074,0.3150596 -0.24494,0.035006 -0.42005,0.2100378 -0.42005,0.5951121 0,0.3500662 0.24495,0.3500662 0.70011,0.3500662 1.43528,0 1.5053,0.2100377 1.5053,0.4900925 l -0.10518,0.5951124 -1.78532,7.0713354 c -0.52511,-1.120211 -1.40024,-1.925364 -2.73051,-1.925364 -3.50066,0 -7.17637,4.375826 -7.17637,8.716646 0,2.80053 1.64531,4.7609 3.95576,4.7609 0.59511,0 2.10039,-0.105013 3.88572,-2.205416 0.20998,1.225231 1.26023,2.205416 2.6955,2.205416 1.05024,0 1.71534,-0.665126 2.20541,-1.610305 0.49012,-1.085204 0.87519,-2.905548 0.87519,-2.975561 0,-0.280053 -0.24495,-0.280053 -0.35004,-0.280053 -0.27991,0 -0.31507,0.105013 -0.42009,0.525099 -0.49011,1.925364 -1.0502,3.7107 -2.24044,3.7107 -0.80515,0 -0.91018,-0.770145 -0.91018,-1.365257 0,-0.73514 0.0699,-0.945178 0.17512,-1.435271 z m -6.19617,16.8031736 c -0.14005,0.525098 -0.14005,0.595111 -0.5951,1.085204 -1.33027,1.645311 -2.52046,2.135403 -3.36062,2.135403 -1.50531,0 -1.9254,-1.645311 -1.9254,-2.800528 0,-1.505284 0.9802,-5.145973 1.64534,-6.51123 0.91015,-1.785337 2.27541,-2.870542 3.46563,-2.870542 1.92537,0 2.34545,2.450463 2.34545,2.625496 0,0.175034 -0.07,0.350066 -0.10518,0.490093 z m 0,0"
         style="fill:#000000;fill-opacity:1;fill-rule:nonzero;stroke:none;stroke-width:2.98722" />
      <path
         id="path25"
         d="m 229.10315,14.970481 c -1.61028,0.350066 -1.78533,1.785338 -1.78533,2.100397 0,0.630118 0.49009,1.365258 1.47027,1.365258 1.01519,0 2.13541,-0.840159 2.13541,-2.345443 0,-1.365258 -1.0502,-2.59049 -2.90554,-2.59049 -1.68031,0 -3.08058,0.840159 -3.95576,1.785338 -0.70013,-1.365258 -2.41546,-1.785338 -3.50068,-1.785338 -1.08519,0 -1.92535,0.63012 -2.55546,1.680318 -0.73513,1.155218 -1.15521,2.765523 -1.15521,2.940555 0,0.42008 0.45508,0.42008 0.73513,0.42008 0.31506,0 0.42008,0 0.59513,-0.140027 0.0348,-0.07001 0.0348,-0.105013 0.20996,-0.875165 0.59513,-2.240423 1.22524,-2.975562 2.0304,-2.975562 0.45506,0 0.70012,0.315059 0.70012,1.085205 0,0.525099 -0.10518,0.875165 -0.42006,2.275429 -0.14005,0.490093 -0.63015,2.450463 -0.84015,3.185602 -0.10519,0.595113 -0.45512,1.925363 -0.59513,2.450464 -0.17512,0.770145 -0.52509,2.100395 -0.52509,2.310435 0,0.630118 0.45506,1.330251 1.40024,1.330251 0.59513,0 1.61031,-0.350066 1.96037,-1.575297 0.0351,-0.105026 2.0304,-8.191547 2.06539,-8.366579 0.14005,-0.455087 0.14005,-0.5251 0.52512,-0.94518 0.66511,-0.875165 1.7853,-1.75033 3.25561,-1.75033 0.77013,0 1.0852,0.350066 1.15522,0.420079 z m 0,0"
         style="fill:#000000;fill-opacity:1;fill-rule:nonzero;stroke:none;stroke-width:2.98722" />
      <path
         id="path26"
         d="m 238.64246,4.8273156 c 0.14005,-0.3500659 0.17512,-0.5250992 0.17512,-0.6651256 0,-0.630119 -0.59512,-1.155218 -1.22525,-1.155218 -0.80515,0 -1.05019,0.6651253 -1.15519,0.980185 l -2.73054,9.031706 c -0.0348,0.03501 -0.10479,0.315059 -0.10479,0.350066 0,0.245045 0.6301,0.455086 0.80516,0.455086 0.14005,0 0.17511,-0.07001 0.31506,-0.385073 z m 0,0"
         style="fill:#000000;fill-opacity:1;fill-rule:nonzero;stroke:none;stroke-width:2.98722" />
    </g>
  </g>
</svg>
